<svg xmlns="http://www.w3.org/2000/svg" width="332" height="272" viewBox="0 0 332 272"><rect width="100%" height="100%" fill="#DDDDDD"/><path fill="#999999" d="m71.505 129.465-2.86-.51q.33-2.28 1.28-4.01t2.36-2.88q1.42-1.16 3.26-1.74t3.95-.58q2.2 0 3.97.62 1.77.63 3.03 1.74 1.25 1.11 1.92 2.61.67 1.49.67 3.23 0 1.52-.34 2.67-.34 1.16-.98 2.02t-1.58 1.45q-.95.59-2.14.99 2.86.9 4.27 2.75t1.41 4.64q0 2.38-.88 4.2-.88 1.83-2.38 3.07-1.49 1.25-3.46 1.88-1.97.64-4.17.64-2.4 0-4.18-.55t-3.1-1.63q-1.32-1.07-2.25-2.64-.92-1.56-1.58-3.6l2.4-.99q.94-.4 1.77-.21.82.18 1.2.89.39.77.87 1.52.47.74 1.13 1.33.66.58 1.55.94.89.37 2.12.37 1.39 0 2.42-.45 1.04-.46 1.73-1.18.69-.73 1.03-1.62.35-.89.35-1.79 0-1.15-.25-2.08-.24-.94-1.01-1.6t-2.21-1.03-3.86-.37v-3.88q2-.02 3.32-.37t2.1-.98 1.09-1.51.31-1.93q0-2.25-1.25-3.41-1.26-1.17-3.35-1.17-.97 0-1.78.28-.81.27-1.46.77-.65.49-1.09 1.15t-.66 1.45q-.38 1.02-.98 1.35-.61.33-1.71.15m25.52 0-2.86-.51q.33-2.28 1.28-4.01t2.36-2.88q1.42-1.16 3.26-1.74t3.95-.58q2.2 0 3.97.62 1.77.63 3.03 1.74 1.25 1.11 1.92 2.61.67 1.49.67 3.23 0 1.52-.34 2.67-.34 1.16-.98 2.02t-1.58 1.45q-.95.59-2.14.99 2.86.9 4.27 2.75t1.41 4.64q0 2.38-.88 4.2-.88 1.83-2.38 3.07-1.49 1.25-3.46 1.88-1.97.64-4.17.64-2.4 0-4.18-.55t-3.1-1.63q-1.32-1.07-2.25-2.64-.92-1.56-1.58-3.6l2.4-.99q.94-.4 1.77-.21.82.18 1.2.89.39.77.87 1.52.47.74 1.13 1.33.66.58 1.55.94.89.37 2.12.37 1.39 0 2.42-.45 1.04-.46 1.73-1.18.69-.73 1.03-1.62.35-.89.35-1.79 0-1.15-.25-2.08-.24-.94-1.01-1.6t-2.21-1.03-3.86-.37v-3.88q2-.02 3.32-.37t2.1-.98 1.09-1.51.31-1.93q0-2.25-1.25-3.41-1.26-1.17-3.35-1.17-.97 0-1.78.28-.81.27-1.46.77-.65.49-1.09 1.15t-.66 1.45q-.38 1.02-.98 1.35-.61.33-1.71.15m33.71 17.38h8.16q.88 0 1.4.5.51.49.51 1.3v3.26h-21.82v-1.8q0-.55.23-1.16.23-.6.74-1.09l9.66-9.68q1.21-1.23 2.16-2.35.96-1.12 1.6-2.22t.98-2.24q.34-1.13.34-2.38 0-1.15-.33-2.02t-.94-1.46q-.6-.59-1.45-.89t-1.9-.3q-.97 0-1.8.28-.82.27-1.46.77-.64.49-1.08 1.15t-.66 1.45q-.37 1.02-.96 1.35-.6.33-1.72.15l-2.86-.51q.33-2.28 1.28-4.01.94-1.73 2.36-2.88 1.42-1.16 3.26-1.74 1.83-.58 3.95-.58 2.2 0 4.02.65 1.83.64 3.13 1.83 1.29 1.19 2.02 2.86t.73 3.72q0 1.76-.52 3.26-.52 1.49-1.39 2.86-.87 1.36-2.03 2.64-1.17 1.27-2.44 2.59l-7.18 7.33q1.04-.31 2.06-.47 1.02-.17 1.95-.17m45.93-2.22-2.88 2.84-7.46-7.46-7.52 7.5-2.88-2.84 7.52-7.54-7.17-7.18 2.86-2.86 7.17 7.18 7.13-7.13 2.9 2.86-7.15 7.15zm26.49 2.22h8.16q.88 0 1.4.5.52.49.52 1.3v3.26h-21.83v-1.8q0-.55.23-1.16.24-.6.74-1.09l9.66-9.68q1.21-1.23 2.17-2.35.95-1.12 1.59-2.22t.98-2.24q.34-1.13.34-2.38 0-1.15-.33-2.02t-.93-1.46q-.61-.59-1.46-.89-.84-.3-1.9-.3-.97 0-1.79.28-.83.27-1.46.77-.64.49-1.08 1.15t-.66 1.45q-.38 1.02-.97 1.35t-1.72.15l-2.86-.51q.33-2.28 1.28-4.01t2.36-2.88q1.42-1.16 3.26-1.74t3.95-.58q2.2 0 4.03.65 1.82.64 3.12 1.83t2.02 2.86q.73 1.67.73 3.72 0 1.76-.52 3.26-.51 1.49-1.38 2.86-.87 1.36-2.04 2.64-1.16 1.27-2.44 2.59l-7.17 7.33q1.03-.31 2.05-.47 1.03-.17 1.95-.17m14.15-26.75h21.98v2.35q0 1.06-.22 1.71t-.44 1.09l-12.06 24.81q-.37.77-1.06 1.31-.68.54-1.82.54h-3.94l12.3-24.31q.42-.75.82-1.37.41-.63.92-1.2h-15.23q-.5 0-.88-.38-.37-.37-.37-.88zm36.89 26.75h8.16q.88 0 1.4.5.52.49.52 1.3v3.26h-21.83v-1.8q0-.55.23-1.16.24-.6.74-1.09l9.66-9.68q1.21-1.23 2.17-2.35.95-1.12 1.59-2.22t.98-2.24q.34-1.13.34-2.38 0-1.15-.33-2.02t-.93-1.46q-.61-.59-1.46-.89-.84-.3-1.9-.3-.97 0-1.79.28-.83.27-1.46.77-.64.49-1.08 1.15t-.66 1.45q-.38 1.02-.97 1.35t-1.72.15l-2.86-.51q.33-2.28 1.28-4.01t2.36-2.88q1.42-1.16 3.26-1.74t3.95-.58q2.2 0 4.03.65 1.82.64 3.12 1.83t2.02 2.86q.73 1.67.73 3.72 0 1.76-.52 3.26-.51 1.49-1.38 2.86-.87 1.36-2.04 2.64-1.16 1.27-2.44 2.59l-7.17 7.33q1.03-.31 2.05-.47 1.03-.17 1.95-.17"/></svg>